<mxfile host="app.diagrams.net" modified="2022-12-12T17:39:20.161Z" agent="5.0 (Windows NT 10.0; Win64; x64) AppleWebKit/537.36 (KHTML, like Gecko) Chrome/106.0.0.0 YaBrowser/22.11.2.807 Yowser/2.5 Safari/537.36" etag="fq8D-Z-vH3mX3JN_geOp" version="20.6.2" type="github" pages="5">
  <diagram id="C5RBs43oDa-KdzZeNtuy" name="Страница 1">
    <mxGraphModel dx="813" dy="446" grid="1" gridSize="10" guides="1" tooltips="1" connect="1" arrows="1" fold="1" page="1" pageScale="1" pageWidth="827" pageHeight="1169" math="0" shadow="0">
      <root>
        <mxCell id="WIyWlLk6GJQsqaUBKTNV-0" />
        <mxCell id="WIyWlLk6GJQsqaUBKTNV-1" parent="WIyWlLk6GJQsqaUBKTNV-0" />
        <mxCell id="lGB9nkkbmbxpea_cKSjL-11" style="edgeStyle=orthogonalEdgeStyle;rounded=0;orthogonalLoop=1;jettySize=auto;html=1;exitX=0.5;exitY=1;exitDx=0;exitDy=0;exitPerimeter=0;entryX=0.5;entryY=0;entryDx=0;entryDy=0;" edge="1" parent="WIyWlLk6GJQsqaUBKTNV-1" source="lGB9nkkbmbxpea_cKSjL-3" target="lGB9nkkbmbxpea_cKSjL-12">
          <mxGeometry relative="1" as="geometry">
            <mxPoint x="360" y="205" as="targetPoint" />
          </mxGeometry>
        </mxCell>
        <mxCell id="lGB9nkkbmbxpea_cKSjL-3" value="&lt;font style=&quot;font-size: 14px;&quot; face=&quot;Times New Roman&quot;&gt;Начало&lt;/font&gt;" style="strokeWidth=2;html=1;shape=mxgraph.flowchart.terminator;whiteSpace=wrap;" vertex="1" parent="WIyWlLk6GJQsqaUBKTNV-1">
          <mxGeometry x="280" y="120" width="160" height="70" as="geometry" />
        </mxCell>
        <mxCell id="lGB9nkkbmbxpea_cKSjL-14" style="edgeStyle=orthogonalEdgeStyle;rounded=0;orthogonalLoop=1;jettySize=auto;html=1;exitX=0.5;exitY=1;exitDx=0;exitDy=0;entryX=0.5;entryY=0;entryDx=0;entryDy=0;fontFamily=Times New Roman;fontSize=14;" edge="1" parent="WIyWlLk6GJQsqaUBKTNV-1" source="lGB9nkkbmbxpea_cKSjL-12">
          <mxGeometry relative="1" as="geometry">
            <mxPoint x="359.9999999999998" y="360" as="targetPoint" />
          </mxGeometry>
        </mxCell>
        <mxCell id="lGB9nkkbmbxpea_cKSjL-12" value="&lt;font style=&quot;font-size: 14px;&quot; face=&quot;Times New Roman&quot;&gt;numbers = [&quot;1&quot;, &quot;2&quot;, &quot;3&quot;, &quot;4&quot;, &quot;5&quot;, &quot;6&quot;, &quot;7&quot;, &quot;8&quot;, &quot;9&quot;]&lt;br&gt;&lt;/font&gt;" style="rounded=0;whiteSpace=wrap;html=1;" vertex="1" parent="WIyWlLk6GJQsqaUBKTNV-1">
          <mxGeometry x="200" y="240" width="320" height="60" as="geometry" />
        </mxCell>
        <mxCell id="lGB9nkkbmbxpea_cKSjL-20" style="edgeStyle=orthogonalEdgeStyle;rounded=0;orthogonalLoop=1;jettySize=auto;html=1;exitX=0.5;exitY=1;exitDx=0;exitDy=0;fontFamily=Times New Roman;fontSize=14;" edge="1" parent="WIyWlLk6GJQsqaUBKTNV-1" source="lGB9nkkbmbxpea_cKSjL-17" target="lGB9nkkbmbxpea_cKSjL-19">
          <mxGeometry relative="1" as="geometry" />
        </mxCell>
        <mxCell id="lGB9nkkbmbxpea_cKSjL-17" value="Вывод: &quot;Введите размер матрицы&quot;" style="shape=parallelogram;perimeter=parallelogramPerimeter;whiteSpace=wrap;html=1;fixedSize=1;fontFamily=Times New Roman;fontSize=14;" vertex="1" parent="WIyWlLk6GJQsqaUBKTNV-1">
          <mxGeometry x="242" y="350" width="236" height="60" as="geometry" />
        </mxCell>
        <mxCell id="lGB9nkkbmbxpea_cKSjL-22" style="edgeStyle=orthogonalEdgeStyle;rounded=0;orthogonalLoop=1;jettySize=auto;html=1;entryX=0.5;entryY=0;entryDx=0;entryDy=0;fontFamily=Times New Roman;fontSize=14;" edge="1" parent="WIyWlLk6GJQsqaUBKTNV-1" source="lGB9nkkbmbxpea_cKSjL-19" target="lGB9nkkbmbxpea_cKSjL-21">
          <mxGeometry relative="1" as="geometry" />
        </mxCell>
        <mxCell id="lGB9nkkbmbxpea_cKSjL-19" value="Ввод: M &lt;br&gt;# размер матрицы M*M от 2 до 5" style="shape=parallelogram;perimeter=parallelogramPerimeter;whiteSpace=wrap;html=1;fixedSize=1;fontFamily=Times New Roman;fontSize=14;" vertex="1" parent="WIyWlLk6GJQsqaUBKTNV-1">
          <mxGeometry x="220" y="440" width="280" height="60" as="geometry" />
        </mxCell>
        <mxCell id="lGB9nkkbmbxpea_cKSjL-26" style="edgeStyle=orthogonalEdgeStyle;rounded=0;orthogonalLoop=1;jettySize=auto;html=1;entryX=0.5;entryY=0;entryDx=0;entryDy=0;fontFamily=Times New Roman;fontSize=14;" edge="1" parent="WIyWlLk6GJQsqaUBKTNV-1" source="lGB9nkkbmbxpea_cKSjL-21" target="lGB9nkkbmbxpea_cKSjL-23">
          <mxGeometry relative="1" as="geometry" />
        </mxCell>
        <mxCell id="lGB9nkkbmbxpea_cKSjL-36" style="edgeStyle=orthogonalEdgeStyle;rounded=0;orthogonalLoop=1;jettySize=auto;html=1;fontFamily=Times New Roman;fontSize=14;" edge="1" parent="WIyWlLk6GJQsqaUBKTNV-1" source="lGB9nkkbmbxpea_cKSjL-21">
          <mxGeometry relative="1" as="geometry">
            <mxPoint x="360" y="960" as="targetPoint" />
            <Array as="points">
              <mxPoint x="520" y="600" />
              <mxPoint x="520" y="920" />
              <mxPoint x="360" y="920" />
            </Array>
          </mxGeometry>
        </mxCell>
        <mxCell id="lGB9nkkbmbxpea_cKSjL-21" value="Пока (M &amp;lt; 2 или M &amp;gt; 5)" style="shape=hexagon;perimeter=hexagonPerimeter2;whiteSpace=wrap;html=1;fixedSize=1;fontFamily=Times New Roman;fontSize=14;" vertex="1" parent="WIyWlLk6GJQsqaUBKTNV-1">
          <mxGeometry x="280" y="560" width="160" height="80" as="geometry" />
        </mxCell>
        <mxCell id="lGB9nkkbmbxpea_cKSjL-28" style="edgeStyle=orthogonalEdgeStyle;rounded=0;orthogonalLoop=1;jettySize=auto;html=1;fontFamily=Times New Roman;fontSize=14;" edge="1" parent="WIyWlLk6GJQsqaUBKTNV-1" source="lGB9nkkbmbxpea_cKSjL-23" target="lGB9nkkbmbxpea_cKSjL-27">
          <mxGeometry relative="1" as="geometry" />
        </mxCell>
        <mxCell id="lGB9nkkbmbxpea_cKSjL-23" value="Вывод: &quot;Введите размер матрицы&quot;" style="shape=parallelogram;perimeter=parallelogramPerimeter;whiteSpace=wrap;html=1;fixedSize=1;fontFamily=Times New Roman;fontSize=14;" vertex="1" parent="WIyWlLk6GJQsqaUBKTNV-1">
          <mxGeometry x="242" y="680" width="236" height="60" as="geometry" />
        </mxCell>
        <mxCell id="lGB9nkkbmbxpea_cKSjL-34" style="edgeStyle=orthogonalEdgeStyle;rounded=0;orthogonalLoop=1;jettySize=auto;html=1;exitX=0.5;exitY=1;exitDx=0;exitDy=0;fontFamily=Times New Roman;fontSize=14;entryX=0;entryY=0.5;entryDx=0;entryDy=0;" edge="1" parent="WIyWlLk6GJQsqaUBKTNV-1" source="lGB9nkkbmbxpea_cKSjL-27" target="lGB9nkkbmbxpea_cKSjL-21">
          <mxGeometry relative="1" as="geometry">
            <mxPoint x="190" y="620" as="targetPoint" />
            <Array as="points">
              <mxPoint x="360" y="900" />
              <mxPoint x="200" y="900" />
              <mxPoint x="200" y="600" />
            </Array>
          </mxGeometry>
        </mxCell>
        <mxCell id="lGB9nkkbmbxpea_cKSjL-27" value="Ввод: M &lt;br&gt;# размер матрицы M*M от 2 до 5" style="shape=parallelogram;perimeter=parallelogramPerimeter;whiteSpace=wrap;html=1;fixedSize=1;fontFamily=Times New Roman;fontSize=14;" vertex="1" parent="WIyWlLk6GJQsqaUBKTNV-1">
          <mxGeometry x="220" y="790" width="280" height="60" as="geometry" />
        </mxCell>
        <mxCell id="lGB9nkkbmbxpea_cKSjL-38" value="A" style="ellipse;whiteSpace=wrap;html=1;aspect=fixed;fontFamily=Times New Roman;fontSize=14;" vertex="1" parent="WIyWlLk6GJQsqaUBKTNV-1">
          <mxGeometry x="320" y="960" width="80" height="80" as="geometry" />
        </mxCell>
      </root>
    </mxGraphModel>
  </diagram>
  <diagram id="S_AXdi6OGKMSA_9-iiaM" name="Страница 2">
    <mxGraphModel dx="677" dy="372" grid="1" gridSize="10" guides="1" tooltips="1" connect="1" arrows="1" fold="1" page="1" pageScale="1" pageWidth="827" pageHeight="1169" math="0" shadow="0">
      <root>
        <mxCell id="0" />
        <mxCell id="1" parent="0" />
        <mxCell id="myh9R-bnxQby4gH9twHM-3" style="edgeStyle=orthogonalEdgeStyle;rounded=0;orthogonalLoop=1;jettySize=auto;html=1;fontFamily=Times New Roman;fontSize=14;" edge="1" parent="1" source="myh9R-bnxQby4gH9twHM-1">
          <mxGeometry relative="1" as="geometry">
            <mxPoint x="400" y="160" as="targetPoint" />
          </mxGeometry>
        </mxCell>
        <mxCell id="myh9R-bnxQby4gH9twHM-1" value="A" style="ellipse;whiteSpace=wrap;html=1;aspect=fixed;fontFamily=Times New Roman;fontSize=14;" vertex="1" parent="1">
          <mxGeometry x="360" y="40" width="80" height="80" as="geometry" />
        </mxCell>
        <mxCell id="myh9R-bnxQby4gH9twHM-6" style="edgeStyle=orthogonalEdgeStyle;rounded=0;orthogonalLoop=1;jettySize=auto;html=1;fontFamily=Times New Roman;fontSize=14;" edge="1" parent="1" source="myh9R-bnxQby4gH9twHM-4" target="myh9R-bnxQby4gH9twHM-5">
          <mxGeometry relative="1" as="geometry" />
        </mxCell>
        <mxCell id="myh9R-bnxQby4gH9twHM-4" value="matrix = [] # объявление матрицы" style="rounded=0;whiteSpace=wrap;html=1;fontFamily=Times New Roman;fontSize=14;" vertex="1" parent="1">
          <mxGeometry x="290" y="160" width="220" height="60" as="geometry" />
        </mxCell>
        <mxCell id="UJ7wWiH1aIr0bggZYX_L-2" style="edgeStyle=orthogonalEdgeStyle;rounded=0;orthogonalLoop=1;jettySize=auto;html=1;fontFamily=Times New Roman;fontSize=14;" edge="1" parent="1" source="myh9R-bnxQby4gH9twHM-5">
          <mxGeometry relative="1" as="geometry">
            <mxPoint x="400" y="360" as="targetPoint" />
          </mxGeometry>
        </mxCell>
        <mxCell id="myh9R-bnxQby4gH9twHM-5" value="tmp = [] # временный массив" style="rounded=0;whiteSpace=wrap;html=1;fontFamily=Times New Roman;fontSize=14;" vertex="1" parent="1">
          <mxGeometry x="300" y="260" width="200" height="60" as="geometry" />
        </mxCell>
        <mxCell id="UJ7wWiH1aIr0bggZYX_L-5" style="edgeStyle=orthogonalEdgeStyle;rounded=0;orthogonalLoop=1;jettySize=auto;html=1;fontFamily=Times New Roman;fontSize=14;" edge="1" parent="1" source="UJ7wWiH1aIr0bggZYX_L-3" target="UJ7wWiH1aIr0bggZYX_L-4">
          <mxGeometry relative="1" as="geometry" />
        </mxCell>
        <mxCell id="UJ7wWiH1aIr0bggZYX_L-3" value="Вывод: &quot;Введите способ ввода матрицы (1 - случайные, 2 - пользователь вводит с клавиатуры)&quot;" style="shape=parallelogram;perimeter=parallelogramPerimeter;whiteSpace=wrap;html=1;fixedSize=1;fontFamily=Times New Roman;fontSize=14;" vertex="1" parent="1">
          <mxGeometry x="100" y="360" width="600" height="60" as="geometry" />
        </mxCell>
        <mxCell id="RnqEWyDRQ49jVquwboEz-13" style="edgeStyle=orthogonalEdgeStyle;rounded=0;orthogonalLoop=1;jettySize=auto;html=1;entryX=0.5;entryY=0;entryDx=0;entryDy=0;fontFamily=Times New Roman;fontSize=14;" edge="1" parent="1" source="UJ7wWiH1aIr0bggZYX_L-4" target="RnqEWyDRQ49jVquwboEz-3">
          <mxGeometry relative="1" as="geometry" />
        </mxCell>
        <mxCell id="UJ7wWiH1aIr0bggZYX_L-4" value="Ввод: variant&lt;br&gt;# пользователь выбирает вариант создания матрицы" style="shape=parallelogram;perimeter=parallelogramPerimeter;whiteSpace=wrap;html=1;fixedSize=1;fontFamily=Times New Roman;fontSize=14;" vertex="1" parent="1">
          <mxGeometry x="123.44" y="470" width="553.12" height="60" as="geometry" />
        </mxCell>
        <mxCell id="RnqEWyDRQ49jVquwboEz-1" style="edgeStyle=orthogonalEdgeStyle;rounded=0;orthogonalLoop=1;jettySize=auto;html=1;entryX=0.5;entryY=0;entryDx=0;entryDy=0;fontFamily=Times New Roman;fontSize=14;" edge="1" parent="1" source="RnqEWyDRQ49jVquwboEz-3" target="RnqEWyDRQ49jVquwboEz-5">
          <mxGeometry relative="1" as="geometry" />
        </mxCell>
        <mxCell id="RnqEWyDRQ49jVquwboEz-2" style="edgeStyle=orthogonalEdgeStyle;rounded=0;orthogonalLoop=1;jettySize=auto;html=1;fontFamily=Times New Roman;fontSize=14;entryX=0.5;entryY=0;entryDx=0;entryDy=0;" edge="1" parent="1" source="RnqEWyDRQ49jVquwboEz-3" target="RnqEWyDRQ49jVquwboEz-8">
          <mxGeometry relative="1" as="geometry">
            <mxPoint x="400" y="965" as="targetPoint" />
            <Array as="points">
              <mxPoint x="560" y="625" />
              <mxPoint x="560" y="920" />
              <mxPoint x="400" y="920" />
            </Array>
          </mxGeometry>
        </mxCell>
        <mxCell id="RnqEWyDRQ49jVquwboEz-3" value="Пока (variant != 1 и variant != 2)" style="shape=hexagon;perimeter=hexagonPerimeter2;whiteSpace=wrap;html=1;fixedSize=1;fontFamily=Times New Roman;fontSize=14;" vertex="1" parent="1">
          <mxGeometry x="300" y="585" width="200" height="80" as="geometry" />
        </mxCell>
        <mxCell id="RnqEWyDRQ49jVquwboEz-4" style="edgeStyle=orthogonalEdgeStyle;rounded=0;orthogonalLoop=1;jettySize=auto;html=1;fontFamily=Times New Roman;fontSize=14;" edge="1" parent="1" source="RnqEWyDRQ49jVquwboEz-5" target="RnqEWyDRQ49jVquwboEz-7">
          <mxGeometry relative="1" as="geometry" />
        </mxCell>
        <mxCell id="RnqEWyDRQ49jVquwboEz-5" value="Вывод: &quot;1 или 2!&quot;" style="shape=parallelogram;perimeter=parallelogramPerimeter;whiteSpace=wrap;html=1;fixedSize=1;fontFamily=Times New Roman;fontSize=14;" vertex="1" parent="1">
          <mxGeometry x="282" y="705" width="236" height="60" as="geometry" />
        </mxCell>
        <mxCell id="RnqEWyDRQ49jVquwboEz-6" style="edgeStyle=orthogonalEdgeStyle;rounded=0;orthogonalLoop=1;jettySize=auto;html=1;exitX=0.5;exitY=1;exitDx=0;exitDy=0;fontFamily=Times New Roman;fontSize=14;entryX=0;entryY=0.5;entryDx=0;entryDy=0;" edge="1" parent="1" source="RnqEWyDRQ49jVquwboEz-7" target="RnqEWyDRQ49jVquwboEz-3">
          <mxGeometry relative="1" as="geometry">
            <mxPoint x="230" y="625" as="targetPoint" />
            <Array as="points">
              <mxPoint x="400" y="905" />
              <mxPoint x="240" y="905" />
              <mxPoint x="240" y="625" />
            </Array>
          </mxGeometry>
        </mxCell>
        <mxCell id="RnqEWyDRQ49jVquwboEz-7" value="Ввод: variant" style="shape=parallelogram;perimeter=parallelogramPerimeter;whiteSpace=wrap;html=1;fixedSize=1;fontFamily=Times New Roman;fontSize=14;" vertex="1" parent="1">
          <mxGeometry x="330" y="805" width="140" height="60" as="geometry" />
        </mxCell>
        <mxCell id="RnqEWyDRQ49jVquwboEz-8" value="B" style="ellipse;whiteSpace=wrap;html=1;aspect=fixed;fontFamily=Times New Roman;fontSize=14;" vertex="1" parent="1">
          <mxGeometry x="360" y="960" width="80" height="80" as="geometry" />
        </mxCell>
      </root>
    </mxGraphModel>
  </diagram>
  <diagram id="kAuAYdqbR3cbgCDaEKg-" name="Страница 3">
    <mxGraphModel dx="2605" dy="976" grid="1" gridSize="10" guides="1" tooltips="1" connect="1" arrows="1" fold="1" page="1" pageScale="1" pageWidth="827" pageHeight="1169" math="0" shadow="0">
      <root>
        <mxCell id="0" />
        <mxCell id="1" parent="0" />
        <mxCell id="7kKTO8w0hRnDKyieRVO7-3" style="edgeStyle=orthogonalEdgeStyle;rounded=0;orthogonalLoop=1;jettySize=auto;html=1;fontFamily=Times New Roman;fontSize=14;" edge="1" parent="1" source="7kKTO8w0hRnDKyieRVO7-1">
          <mxGeometry relative="1" as="geometry">
            <mxPoint x="440" y="160" as="targetPoint" />
          </mxGeometry>
        </mxCell>
        <mxCell id="7kKTO8w0hRnDKyieRVO7-1" value="B" style="ellipse;whiteSpace=wrap;html=1;aspect=fixed;fontFamily=Times New Roman;fontSize=14;" vertex="1" parent="1">
          <mxGeometry x="400" y="40" width="80" height="80" as="geometry" />
        </mxCell>
        <mxCell id="7kKTO8w0hRnDKyieRVO7-6" style="edgeStyle=orthogonalEdgeStyle;rounded=0;orthogonalLoop=1;jettySize=auto;html=1;fontFamily=Times New Roman;fontSize=14;" edge="1" parent="1" source="7kKTO8w0hRnDKyieRVO7-4">
          <mxGeometry relative="1" as="geometry">
            <mxPoint x="120.02127659574467" y="360" as="targetPoint" />
            <Array as="points">
              <mxPoint x="120" y="220" />
            </Array>
          </mxGeometry>
        </mxCell>
        <mxCell id="7kKTO8w0hRnDKyieRVO7-8" style="edgeStyle=orthogonalEdgeStyle;rounded=0;orthogonalLoop=1;jettySize=auto;html=1;exitX=1;exitY=0.5;exitDx=0;exitDy=0;exitPerimeter=0;fontFamily=Times New Roman;fontSize=14;" edge="1" parent="1" source="7kKTO8w0hRnDKyieRVO7-4" target="7kKTO8w0hRnDKyieRVO7-7">
          <mxGeometry relative="1" as="geometry" />
        </mxCell>
        <mxCell id="7kKTO8w0hRnDKyieRVO7-4" value="Если variant == 1" style="strokeWidth=2;html=1;shape=mxgraph.flowchart.decision;whiteSpace=wrap;fontFamily=Times New Roman;fontSize=14;" vertex="1" parent="1">
          <mxGeometry x="320" y="160" width="240" height="120" as="geometry" />
        </mxCell>
        <mxCell id="7kKTO8w0hRnDKyieRVO7-7" value="Если variant == 1" style="strokeWidth=2;html=1;shape=mxgraph.flowchart.decision;whiteSpace=wrap;fontFamily=Times New Roman;fontSize=14;" vertex="1" parent="1">
          <mxGeometry x="680" y="160" width="240" height="120" as="geometry" />
        </mxCell>
        <mxCell id="b_rpoDftqswsa_kj121b-1" value="Да" style="text;html=1;align=center;verticalAlign=middle;resizable=0;points=[];autosize=1;strokeColor=none;fillColor=none;fontSize=14;fontFamily=Times New Roman;" vertex="1" parent="1">
          <mxGeometry x="200" y="190" width="40" height="30" as="geometry" />
        </mxCell>
        <mxCell id="b_rpoDftqswsa_kj121b-2" value="Нет" style="text;html=1;align=center;verticalAlign=middle;resizable=0;points=[];autosize=1;strokeColor=none;fillColor=none;fontSize=14;fontFamily=Times New Roman;" vertex="1" parent="1">
          <mxGeometry x="595" y="190" width="50" height="30" as="geometry" />
        </mxCell>
        <mxCell id="b_rpoDftqswsa_kj121b-6" style="edgeStyle=orthogonalEdgeStyle;rounded=0;orthogonalLoop=1;jettySize=auto;html=1;fontFamily=Times New Roman;fontSize=14;" edge="1" parent="1" source="b_rpoDftqswsa_kj121b-4">
          <mxGeometry relative="1" as="geometry">
            <mxPoint x="120" y="440" as="targetPoint" />
          </mxGeometry>
        </mxCell>
        <mxCell id="b_rpoDftqswsa_kj121b-17" style="edgeStyle=orthogonalEdgeStyle;rounded=0;orthogonalLoop=1;jettySize=auto;html=1;fontFamily=Times New Roman;fontSize=14;" edge="1" parent="1" source="b_rpoDftqswsa_kj121b-4">
          <mxGeometry relative="1" as="geometry">
            <mxPoint x="120" y="840" as="targetPoint" />
            <Array as="points">
              <mxPoint x="360" y="360" />
              <mxPoint x="360" y="800" />
            </Array>
          </mxGeometry>
        </mxCell>
        <mxCell id="b_rpoDftqswsa_kj121b-4" value="for i in range(M)" style="shape=hexagon;perimeter=hexagonPerimeter2;whiteSpace=wrap;html=1;fixedSize=1;fontFamily=Times New Roman;fontSize=14;" vertex="1" parent="1">
          <mxGeometry x="60" y="320" width="120" height="80" as="geometry" />
        </mxCell>
        <mxCell id="b_rpoDftqswsa_kj121b-9" style="edgeStyle=orthogonalEdgeStyle;rounded=0;orthogonalLoop=1;jettySize=auto;html=1;entryX=0.5;entryY=0;entryDx=0;entryDy=0;fontFamily=Times New Roman;fontSize=14;" edge="1" parent="1" source="b_rpoDftqswsa_kj121b-7" target="b_rpoDftqswsa_kj121b-8">
          <mxGeometry relative="1" as="geometry" />
        </mxCell>
        <mxCell id="b_rpoDftqswsa_kj121b-7" value="matrix.append([])" style="rounded=0;whiteSpace=wrap;html=1;fontFamily=Times New Roman;fontSize=14;" vertex="1" parent="1">
          <mxGeometry x="60" y="440" width="120" height="60" as="geometry" />
        </mxCell>
        <mxCell id="b_rpoDftqswsa_kj121b-11" style="edgeStyle=orthogonalEdgeStyle;rounded=0;orthogonalLoop=1;jettySize=auto;html=1;entryX=0.5;entryY=0;entryDx=0;entryDy=0;fontFamily=Times New Roman;fontSize=14;" edge="1" parent="1" source="b_rpoDftqswsa_kj121b-8" target="b_rpoDftqswsa_kj121b-10">
          <mxGeometry relative="1" as="geometry" />
        </mxCell>
        <mxCell id="b_rpoDftqswsa_kj121b-15" style="edgeStyle=orthogonalEdgeStyle;rounded=0;orthogonalLoop=1;jettySize=auto;html=1;fontFamily=Times New Roman;fontSize=14;entryX=0;entryY=0.5;entryDx=0;entryDy=0;" edge="1" parent="1" source="b_rpoDftqswsa_kj121b-8" target="b_rpoDftqswsa_kj121b-4">
          <mxGeometry relative="1" as="geometry">
            <mxPoint x="-120" y="360" as="targetPoint" />
            <Array as="points">
              <mxPoint x="300" y="580" />
              <mxPoint x="300" y="760" />
              <mxPoint x="-120" y="760" />
              <mxPoint x="-120" y="360" />
            </Array>
          </mxGeometry>
        </mxCell>
        <mxCell id="b_rpoDftqswsa_kj121b-8" value="for j in range(M)" style="shape=hexagon;perimeter=hexagonPerimeter2;whiteSpace=wrap;html=1;fixedSize=1;fontFamily=Times New Roman;fontSize=14;" vertex="1" parent="1">
          <mxGeometry x="60" y="540" width="120" height="80" as="geometry" />
        </mxCell>
        <mxCell id="b_rpoDftqswsa_kj121b-13" style="edgeStyle=orthogonalEdgeStyle;rounded=0;orthogonalLoop=1;jettySize=auto;html=1;fontFamily=Times New Roman;fontSize=14;entryX=0;entryY=0.5;entryDx=0;entryDy=0;" edge="1" parent="1" source="b_rpoDftqswsa_kj121b-10" target="b_rpoDftqswsa_kj121b-8">
          <mxGeometry relative="1" as="geometry">
            <mxPoint x="-80" y="690" as="targetPoint" />
            <Array as="points">
              <mxPoint x="-70" y="690" />
              <mxPoint x="-70" y="580" />
            </Array>
          </mxGeometry>
        </mxCell>
        <mxCell id="b_rpoDftqswsa_kj121b-10" value="matrix.append(random.randint(1, 100))" style="rounded=0;whiteSpace=wrap;html=1;fontFamily=Times New Roman;fontSize=14;" vertex="1" parent="1">
          <mxGeometry y="660" width="240" height="60" as="geometry" />
        </mxCell>
        <mxCell id="jt0U0gJjM5JNkCXVWhdE-1" style="edgeStyle=orthogonalEdgeStyle;rounded=0;orthogonalLoop=1;jettySize=auto;html=1;fontFamily=Times New Roman;fontSize=14;" edge="1" parent="1" source="jt0U0gJjM5JNkCXVWhdE-3">
          <mxGeometry relative="1" as="geometry">
            <mxPoint x="120" y="960" as="targetPoint" />
          </mxGeometry>
        </mxCell>
        <mxCell id="jt0U0gJjM5JNkCXVWhdE-2" style="edgeStyle=orthogonalEdgeStyle;rounded=0;orthogonalLoop=1;jettySize=auto;html=1;fontFamily=Times New Roman;fontSize=14;" edge="1" parent="1" source="jt0U0gJjM5JNkCXVWhdE-3">
          <mxGeometry relative="1" as="geometry">
            <mxPoint x="120" y="1280" as="targetPoint" />
            <Array as="points">
              <mxPoint x="360" y="880" />
              <mxPoint x="360" y="1240" />
              <mxPoint x="120" y="1240" />
            </Array>
          </mxGeometry>
        </mxCell>
        <mxCell id="jt0U0gJjM5JNkCXVWhdE-3" value="for i in range(len(matrix))" style="shape=hexagon;perimeter=hexagonPerimeter2;whiteSpace=wrap;html=1;fixedSize=1;fontFamily=Times New Roman;fontSize=14;" vertex="1" parent="1">
          <mxGeometry x="40" y="840" width="160" height="80" as="geometry" />
        </mxCell>
        <mxCell id="jt0U0gJjM5JNkCXVWhdE-6" style="edgeStyle=orthogonalEdgeStyle;rounded=0;orthogonalLoop=1;jettySize=auto;html=1;entryX=0.5;entryY=0;entryDx=0;entryDy=0;fontFamily=Times New Roman;fontSize=14;" edge="1" parent="1" source="jt0U0gJjM5JNkCXVWhdE-8" target="jt0U0gJjM5JNkCXVWhdE-10">
          <mxGeometry relative="1" as="geometry" />
        </mxCell>
        <mxCell id="jt0U0gJjM5JNkCXVWhdE-12" style="edgeStyle=orthogonalEdgeStyle;rounded=0;orthogonalLoop=1;jettySize=auto;html=1;fontFamily=Times New Roman;fontSize=14;entryX=0;entryY=0.5;entryDx=0;entryDy=0;" edge="1" parent="1" source="jt0U0gJjM5JNkCXVWhdE-8" target="jt0U0gJjM5JNkCXVWhdE-3">
          <mxGeometry relative="1" as="geometry">
            <mxPoint x="-120" y="880" as="targetPoint" />
            <Array as="points">
              <mxPoint x="280" y="1000" />
              <mxPoint x="280" y="1200" />
              <mxPoint x="-120" y="1200" />
              <mxPoint x="-120" y="880" />
            </Array>
          </mxGeometry>
        </mxCell>
        <mxCell id="jt0U0gJjM5JNkCXVWhdE-8" value="for j in range(len(matrix))" style="shape=hexagon;perimeter=hexagonPerimeter2;whiteSpace=wrap;html=1;fixedSize=1;fontFamily=Times New Roman;fontSize=14;" vertex="1" parent="1">
          <mxGeometry x="40" y="960" width="160" height="80" as="geometry" />
        </mxCell>
        <mxCell id="jt0U0gJjM5JNkCXVWhdE-16" style="edgeStyle=orthogonalEdgeStyle;rounded=0;orthogonalLoop=1;jettySize=auto;html=1;fontFamily=Times New Roman;fontSize=14;entryX=0;entryY=0.5;entryDx=0;entryDy=0;" edge="1" parent="1" source="jt0U0gJjM5JNkCXVWhdE-10" target="jt0U0gJjM5JNkCXVWhdE-8">
          <mxGeometry relative="1" as="geometry">
            <mxPoint x="-40" y="1000" as="targetPoint" />
            <Array as="points">
              <mxPoint x="120" y="1170" />
              <mxPoint y="1170" />
              <mxPoint y="1000" />
            </Array>
          </mxGeometry>
        </mxCell>
        <mxCell id="jt0U0gJjM5JNkCXVWhdE-10" value="tmp.append(matrix[i][j])" style="rounded=0;whiteSpace=wrap;html=1;fontFamily=Times New Roman;fontSize=14;" vertex="1" parent="1">
          <mxGeometry x="40" y="1080" width="160" height="60" as="geometry" />
        </mxCell>
        <mxCell id="c_MOx4QyAaBN9RkcaSUb-1" value="C" style="ellipse;whiteSpace=wrap;html=1;aspect=fixed;fontFamily=Times New Roman;fontSize=14;" vertex="1" parent="1">
          <mxGeometry x="80" y="1280" width="80" height="80" as="geometry" />
        </mxCell>
      </root>
    </mxGraphModel>
  </diagram>
  <diagram id="g1PAI1P3Qs9riNoo4hzS" name="Страница 4">
    <mxGraphModel dx="1422" dy="781" grid="1" gridSize="10" guides="1" tooltips="1" connect="1" arrows="1" fold="1" page="1" pageScale="1" pageWidth="827" pageHeight="1169" math="0" shadow="0">
      <root>
        <mxCell id="0" />
        <mxCell id="1" parent="0" />
        <mxCell id="sofypz5tpXtoKlDm3XM5-2" style="edgeStyle=orthogonalEdgeStyle;rounded=0;orthogonalLoop=1;jettySize=auto;html=1;fontFamily=Times New Roman;fontSize=14;" edge="1" parent="1" source="7ID3hxBJi1lCKue8kWl5-1">
          <mxGeometry relative="1" as="geometry">
            <mxPoint x="440" y="160" as="targetPoint" />
          </mxGeometry>
        </mxCell>
        <mxCell id="7ID3hxBJi1lCKue8kWl5-1" value="C" style="ellipse;whiteSpace=wrap;html=1;aspect=fixed;fontFamily=Times New Roman;fontSize=14;" vertex="1" parent="1">
          <mxGeometry x="400" y="40" width="80" height="80" as="geometry" />
        </mxCell>
        <mxCell id="NPQVYsIEWC_wWaEICKxg-1" value="" style="endArrow=none;dashed=1;html=1;rounded=0;" edge="1" parent="1">
          <mxGeometry width="50" height="50" relative="1" as="geometry">
            <mxPoint x="470" y="80" as="sourcePoint" />
            <mxPoint x="510" y="80" as="targetPoint" />
          </mxGeometry>
        </mxCell>
        <mxCell id="NPQVYsIEWC_wWaEICKxg-2" value="" style="strokeWidth=2;html=1;shape=mxgraph.flowchart.annotation_1;align=left;pointerEvents=1;" vertex="1" parent="1">
          <mxGeometry x="510" y="55" width="50" height="50" as="geometry" />
        </mxCell>
        <mxCell id="NPQVYsIEWC_wWaEICKxg-3" value="&lt;font style=&quot;font-size: 14px;&quot; face=&quot;Times New Roman&quot;&gt;bubble_sort(tmp)&lt;br&gt;# сортировка массива tmp&lt;br&gt;# tmp - сортируемый массив&amp;nbsp;&lt;/font&gt;" style="text;html=1;strokeColor=none;fillColor=none;align=center;verticalAlign=middle;whiteSpace=wrap;rounded=0;" vertex="1" parent="1">
          <mxGeometry x="520" y="55" width="180" height="50" as="geometry" />
        </mxCell>
        <mxCell id="3oMQftO3jKGObAshb23N-2" style="edgeStyle=orthogonalEdgeStyle;rounded=0;orthogonalLoop=1;jettySize=auto;html=1;fontFamily=Times New Roman;fontSize=14;" edge="1" parent="1" source="7PCe9tFrvQ7U57KxIBn3-1">
          <mxGeometry relative="1" as="geometry">
            <mxPoint x="440" y="280" as="targetPoint" />
          </mxGeometry>
        </mxCell>
        <mxCell id="7PCe9tFrvQ7U57KxIBn3-1" value="&lt;font style=&quot;font-size: 14px;&quot; face=&quot;Times New Roman&quot;&gt;Начало&lt;/font&gt;" style="strokeWidth=2;html=1;shape=mxgraph.flowchart.terminator;whiteSpace=wrap;" vertex="1" parent="1">
          <mxGeometry x="360" y="160" width="160" height="70" as="geometry" />
        </mxCell>
        <mxCell id="3oMQftO3jKGObAshb23N-3" style="edgeStyle=orthogonalEdgeStyle;rounded=0;orthogonalLoop=1;jettySize=auto;html=1;fontFamily=Times New Roman;fontSize=14;" edge="1" parent="1" source="3oMQftO3jKGObAshb23N-5">
          <mxGeometry relative="1" as="geometry">
            <mxPoint x="440" y="400.0000000000002" as="targetPoint" />
          </mxGeometry>
        </mxCell>
        <mxCell id="3oMQftO3jKGObAshb23N-4" style="edgeStyle=orthogonalEdgeStyle;rounded=0;orthogonalLoop=1;jettySize=auto;html=1;fontFamily=Times New Roman;fontSize=14;" edge="1" parent="1" source="3oMQftO3jKGObAshb23N-5">
          <mxGeometry relative="1" as="geometry">
            <mxPoint x="440" y="960" as="targetPoint" />
            <Array as="points">
              <mxPoint x="680" y="320" />
              <mxPoint x="680" y="920" />
              <mxPoint x="440" y="920" />
            </Array>
          </mxGeometry>
        </mxCell>
        <mxCell id="3oMQftO3jKGObAshb23N-5" value="for i in range(len(tmp) - 1)" style="shape=hexagon;perimeter=hexagonPerimeter2;whiteSpace=wrap;html=1;fixedSize=1;fontFamily=Times New Roman;fontSize=14;" vertex="1" parent="1">
          <mxGeometry x="360" y="280" width="160" height="80" as="geometry" />
        </mxCell>
        <mxCell id="3oMQftO3jKGObAshb23N-6" style="edgeStyle=orthogonalEdgeStyle;rounded=0;orthogonalLoop=1;jettySize=auto;html=1;entryX=0.5;entryY=0;entryDx=0;entryDy=0;fontFamily=Times New Roman;fontSize=14;" edge="1" parent="1" source="3oMQftO3jKGObAshb23N-8">
          <mxGeometry relative="1" as="geometry">
            <mxPoint x="440" y="520" as="targetPoint" />
          </mxGeometry>
        </mxCell>
        <mxCell id="lVxMellVe2HT2YSZJDH9-2" style="edgeStyle=orthogonalEdgeStyle;rounded=0;orthogonalLoop=1;jettySize=auto;html=1;fontFamily=Times New Roman;fontSize=14;entryX=0;entryY=0.5;entryDx=0;entryDy=0;" edge="1" parent="1" source="3oMQftO3jKGObAshb23N-8" target="3oMQftO3jKGObAshb23N-5">
          <mxGeometry relative="1" as="geometry">
            <mxPoint x="240" y="320" as="targetPoint" />
            <Array as="points">
              <mxPoint x="640" y="440" />
              <mxPoint x="640" y="880" />
              <mxPoint x="240" y="880" />
              <mxPoint x="240" y="320" />
            </Array>
          </mxGeometry>
        </mxCell>
        <mxCell id="3oMQftO3jKGObAshb23N-8" value="for j in range(len(tmp) - i - 1)" style="shape=hexagon;perimeter=hexagonPerimeter2;whiteSpace=wrap;html=1;fixedSize=1;fontFamily=Times New Roman;fontSize=14;" vertex="1" parent="1">
          <mxGeometry x="350" y="400" width="180" height="80" as="geometry" />
        </mxCell>
        <mxCell id="3oMQftO3jKGObAshb23N-11" value="D" style="ellipse;whiteSpace=wrap;html=1;aspect=fixed;fontFamily=Times New Roman;fontSize=14;" vertex="1" parent="1">
          <mxGeometry x="400" y="1080" width="80" height="80" as="geometry" />
        </mxCell>
        <mxCell id="7JTGLYLgr8w6eUdnpcBa-3" style="edgeStyle=orthogonalEdgeStyle;rounded=0;orthogonalLoop=1;jettySize=auto;html=1;fontFamily=Times New Roman;fontSize=14;entryX=0.5;entryY=0;entryDx=0;entryDy=0;" edge="1" parent="1" source="7JTGLYLgr8w6eUdnpcBa-1" target="btW7GXSt8F3JW1WqVvuT-1">
          <mxGeometry relative="1" as="geometry">
            <mxPoint x="440" y="680" as="targetPoint" />
          </mxGeometry>
        </mxCell>
        <mxCell id="btW7GXSt8F3JW1WqVvuT-4" style="edgeStyle=orthogonalEdgeStyle;rounded=0;orthogonalLoop=1;jettySize=auto;html=1;fontFamily=Times New Roman;fontSize=14;entryX=1;entryY=0.5;entryDx=0;entryDy=0;" edge="1" parent="1" source="7JTGLYLgr8w6eUdnpcBa-1" target="3oMQftO3jKGObAshb23N-8">
          <mxGeometry relative="1" as="geometry">
            <mxPoint x="600.0344827586207" y="640" as="targetPoint" />
            <Array as="points">
              <mxPoint x="600" y="580" />
              <mxPoint x="600" y="440" />
            </Array>
          </mxGeometry>
        </mxCell>
        <mxCell id="7JTGLYLgr8w6eUdnpcBa-1" value="Если tmp[j] &amp;gt; tmp[j + 1]" style="strokeWidth=2;html=1;shape=mxgraph.flowchart.decision;whiteSpace=wrap;fontFamily=Times New Roman;fontSize=14;" vertex="1" parent="1">
          <mxGeometry x="350" y="520" width="180" height="120" as="geometry" />
        </mxCell>
        <mxCell id="btW7GXSt8F3JW1WqVvuT-7" style="edgeStyle=orthogonalEdgeStyle;rounded=0;orthogonalLoop=1;jettySize=auto;html=1;fontFamily=Times New Roman;fontSize=14;entryX=0;entryY=0.5;entryDx=0;entryDy=0;" edge="1" parent="1" source="btW7GXSt8F3JW1WqVvuT-1" target="3oMQftO3jKGObAshb23N-8">
          <mxGeometry relative="1" as="geometry">
            <mxPoint x="280" y="440" as="targetPoint" />
            <Array as="points">
              <mxPoint x="440" y="820" />
              <mxPoint x="280" y="820" />
              <mxPoint x="280" y="440" />
            </Array>
          </mxGeometry>
        </mxCell>
        <mxCell id="btW7GXSt8F3JW1WqVvuT-1" value="&lt;font style=&quot;font-size: 14px;&quot; face=&quot;Times New Roman&quot;&gt;tmp[j], tmp[j + 1] = tmp[j + 1], tmp[j]&lt;br&gt;&lt;/font&gt;" style="rounded=0;whiteSpace=wrap;html=1;" vertex="1" parent="1">
          <mxGeometry x="320" y="700" width="240" height="60" as="geometry" />
        </mxCell>
        <mxCell id="btW7GXSt8F3JW1WqVvuT-2" value="Да" style="text;html=1;strokeColor=none;fillColor=none;align=center;verticalAlign=middle;whiteSpace=wrap;rounded=0;fontFamily=Times New Roman;fontSize=14;" vertex="1" parent="1">
          <mxGeometry x="430" y="660" width="60" height="30" as="geometry" />
        </mxCell>
        <mxCell id="btW7GXSt8F3JW1WqVvuT-5" value="Нет" style="text;html=1;align=center;verticalAlign=middle;resizable=0;points=[];autosize=1;strokeColor=none;fillColor=none;fontSize=14;fontFamily=Times New Roman;" vertex="1" parent="1">
          <mxGeometry x="540" y="550" width="50" height="30" as="geometry" />
        </mxCell>
        <mxCell id="L3PB6CJG-BYyl5by9swE-2" style="edgeStyle=orthogonalEdgeStyle;rounded=0;orthogonalLoop=1;jettySize=auto;html=1;entryX=0.5;entryY=0;entryDx=0;entryDy=0;fontFamily=Times New Roman;fontSize=14;" edge="1" parent="1" source="L3PB6CJG-BYyl5by9swE-1" target="3oMQftO3jKGObAshb23N-11">
          <mxGeometry relative="1" as="geometry" />
        </mxCell>
        <mxCell id="L3PB6CJG-BYyl5by9swE-1" value="Возвращает: tmp" style="shape=parallelogram;perimeter=parallelogramPerimeter;whiteSpace=wrap;html=1;fixedSize=1;fontFamily=Times New Roman;fontSize=14;" vertex="1" parent="1">
          <mxGeometry x="322" y="960" width="236" height="60" as="geometry" />
        </mxCell>
      </root>
    </mxGraphModel>
  </diagram>
  <diagram id="zN0oOZYfd5pYlrbHHqVZ" name="Страница 5">
    <mxGraphModel dx="1354" dy="744" grid="1" gridSize="10" guides="1" tooltips="1" connect="1" arrows="1" fold="1" page="1" pageScale="1" pageWidth="827" pageHeight="1169" math="0" shadow="0">
      <root>
        <mxCell id="0" />
        <mxCell id="1" parent="0" />
        <mxCell id="xuL1burCqr2xMdkOILew-1" style="edgeStyle=orthogonalEdgeStyle;rounded=0;orthogonalLoop=1;jettySize=auto;html=1;fontFamily=Times New Roman;fontSize=14;" edge="1" parent="1" source="xuL1burCqr2xMdkOILew-2">
          <mxGeometry relative="1" as="geometry">
            <mxPoint x="440" y="160" as="targetPoint" />
          </mxGeometry>
        </mxCell>
        <mxCell id="xuL1burCqr2xMdkOILew-2" value="D" style="ellipse;whiteSpace=wrap;html=1;aspect=fixed;fontFamily=Times New Roman;fontSize=14;" vertex="1" parent="1">
          <mxGeometry x="400" y="40" width="80" height="80" as="geometry" />
        </mxCell>
        <mxCell id="xuL1burCqr2xMdkOILew-6" style="edgeStyle=orthogonalEdgeStyle;rounded=0;orthogonalLoop=1;jettySize=auto;html=1;fontFamily=Times New Roman;fontSize=14;" edge="1" parent="1" source="xuL1burCqr2xMdkOILew-7">
          <mxGeometry relative="1" as="geometry">
            <mxPoint x="440" y="280" as="targetPoint" />
          </mxGeometry>
        </mxCell>
        <mxCell id="xuL1burCqr2xMdkOILew-7" value="&lt;font style=&quot;font-size: 14px;&quot; face=&quot;Times New Roman&quot;&gt;Начало&lt;/font&gt;" style="strokeWidth=2;html=1;shape=mxgraph.flowchart.terminator;whiteSpace=wrap;" vertex="1" parent="1">
          <mxGeometry x="360" y="160" width="160" height="70" as="geometry" />
        </mxCell>
        <mxCell id="xuL1burCqr2xMdkOILew-8" style="edgeStyle=orthogonalEdgeStyle;rounded=0;orthogonalLoop=1;jettySize=auto;html=1;fontFamily=Times New Roman;fontSize=14;" edge="1" parent="1" source="xuL1burCqr2xMdkOILew-10">
          <mxGeometry relative="1" as="geometry">
            <mxPoint x="440" y="520.0000000000002" as="targetPoint" />
          </mxGeometry>
        </mxCell>
        <mxCell id="xuL1burCqr2xMdkOILew-9" style="edgeStyle=orthogonalEdgeStyle;rounded=0;orthogonalLoop=1;jettySize=auto;html=1;fontFamily=Times New Roman;fontSize=14;" edge="1" parent="1" source="xuL1burCqr2xMdkOILew-10">
          <mxGeometry relative="1" as="geometry">
            <mxPoint x="430" y="1000" as="targetPoint" />
            <Array as="points">
              <mxPoint x="670" y="440" />
              <mxPoint x="670" y="960" />
              <mxPoint x="430" y="960" />
            </Array>
          </mxGeometry>
        </mxCell>
        <mxCell id="xuL1burCqr2xMdkOILew-10" value="for i in range(len(matrix))" style="shape=hexagon;perimeter=hexagonPerimeter2;whiteSpace=wrap;html=1;fixedSize=1;fontFamily=Times New Roman;fontSize=14;" vertex="1" parent="1">
          <mxGeometry x="360" y="400" width="160" height="80" as="geometry" />
        </mxCell>
        <mxCell id="xuL1burCqr2xMdkOILew-11" style="edgeStyle=orthogonalEdgeStyle;rounded=0;orthogonalLoop=1;jettySize=auto;html=1;entryX=0.5;entryY=0;entryDx=0;entryDy=0;fontFamily=Times New Roman;fontSize=14;" edge="1" parent="1" source="xuL1burCqr2xMdkOILew-13">
          <mxGeometry relative="1" as="geometry">
            <mxPoint x="440" y="640" as="targetPoint" />
          </mxGeometry>
        </mxCell>
        <mxCell id="xuL1burCqr2xMdkOILew-12" style="edgeStyle=orthogonalEdgeStyle;rounded=0;orthogonalLoop=1;jettySize=auto;html=1;fontFamily=Times New Roman;fontSize=14;entryX=0;entryY=0.5;entryDx=0;entryDy=0;" edge="1" parent="1" source="xuL1burCqr2xMdkOILew-13" target="xuL1burCqr2xMdkOILew-10">
          <mxGeometry relative="1" as="geometry">
            <mxPoint x="240" y="440" as="targetPoint" />
            <Array as="points">
              <mxPoint x="640" y="560" />
              <mxPoint x="640" y="1000" />
              <mxPoint x="240" y="1000" />
              <mxPoint x="240" y="440" />
            </Array>
          </mxGeometry>
        </mxCell>
        <mxCell id="xuL1burCqr2xMdkOILew-13" value="for i in range(len(matrix))" style="shape=hexagon;perimeter=hexagonPerimeter2;whiteSpace=wrap;html=1;fixedSize=1;fontFamily=Times New Roman;fontSize=14;" vertex="1" parent="1">
          <mxGeometry x="350" y="520" width="180" height="80" as="geometry" />
        </mxCell>
        <mxCell id="xuL1burCqr2xMdkOILew-14" value="D" style="ellipse;whiteSpace=wrap;html=1;aspect=fixed;fontFamily=Times New Roman;fontSize=14;" vertex="1" parent="1">
          <mxGeometry x="400" y="1200" width="80" height="80" as="geometry" />
        </mxCell>
        <mxCell id="xuL1burCqr2xMdkOILew-15" style="edgeStyle=orthogonalEdgeStyle;rounded=0;orthogonalLoop=1;jettySize=auto;html=1;fontFamily=Times New Roman;fontSize=14;entryX=0.5;entryY=0;entryDx=0;entryDy=0;" edge="1" parent="1" source="xuL1burCqr2xMdkOILew-17" target="xuL1burCqr2xMdkOILew-19">
          <mxGeometry relative="1" as="geometry">
            <mxPoint x="440" y="800" as="targetPoint" />
          </mxGeometry>
        </mxCell>
        <mxCell id="xuL1burCqr2xMdkOILew-16" style="edgeStyle=orthogonalEdgeStyle;rounded=0;orthogonalLoop=1;jettySize=auto;html=1;fontFamily=Times New Roman;fontSize=14;entryX=1;entryY=0.5;entryDx=0;entryDy=0;" edge="1" parent="1" source="xuL1burCqr2xMdkOILew-17" target="xuL1burCqr2xMdkOILew-13">
          <mxGeometry relative="1" as="geometry">
            <mxPoint x="600.0344827586207" y="760" as="targetPoint" />
            <Array as="points">
              <mxPoint x="600" y="700" />
              <mxPoint x="600" y="560" />
            </Array>
          </mxGeometry>
        </mxCell>
        <mxCell id="xuL1burCqr2xMdkOILew-17" value="Если tmp[j] &amp;gt; tmp[j + 1]" style="strokeWidth=2;html=1;shape=mxgraph.flowchart.decision;whiteSpace=wrap;fontFamily=Times New Roman;fontSize=14;" vertex="1" parent="1">
          <mxGeometry x="350" y="640" width="180" height="120" as="geometry" />
        </mxCell>
        <mxCell id="xuL1burCqr2xMdkOILew-18" style="edgeStyle=orthogonalEdgeStyle;rounded=0;orthogonalLoop=1;jettySize=auto;html=1;fontFamily=Times New Roman;fontSize=14;entryX=0;entryY=0.5;entryDx=0;entryDy=0;" edge="1" parent="1" source="xuL1burCqr2xMdkOILew-19" target="xuL1burCqr2xMdkOILew-13">
          <mxGeometry relative="1" as="geometry">
            <mxPoint x="280" y="560" as="targetPoint" />
            <Array as="points">
              <mxPoint x="440" y="940" />
              <mxPoint x="280" y="940" />
              <mxPoint x="280" y="560" />
            </Array>
          </mxGeometry>
        </mxCell>
        <mxCell id="xuL1burCqr2xMdkOILew-19" value="&lt;font style=&quot;font-size: 14px;&quot; face=&quot;Times New Roman&quot;&gt;tmp[j], tmp[j + 1] = tmp[j + 1], tmp[j]&lt;br&gt;&lt;/font&gt;" style="rounded=0;whiteSpace=wrap;html=1;" vertex="1" parent="1">
          <mxGeometry x="320" y="820" width="240" height="60" as="geometry" />
        </mxCell>
        <mxCell id="xuL1burCqr2xMdkOILew-20" value="Да" style="text;html=1;strokeColor=none;fillColor=none;align=center;verticalAlign=middle;whiteSpace=wrap;rounded=0;fontFamily=Times New Roman;fontSize=14;" vertex="1" parent="1">
          <mxGeometry x="430" y="780" width="60" height="30" as="geometry" />
        </mxCell>
        <mxCell id="xuL1burCqr2xMdkOILew-21" value="Нет" style="text;html=1;align=center;verticalAlign=middle;resizable=0;points=[];autosize=1;strokeColor=none;fillColor=none;fontSize=14;fontFamily=Times New Roman;" vertex="1" parent="1">
          <mxGeometry x="540" y="670" width="50" height="30" as="geometry" />
        </mxCell>
        <mxCell id="xuL1burCqr2xMdkOILew-22" style="edgeStyle=orthogonalEdgeStyle;rounded=0;orthogonalLoop=1;jettySize=auto;html=1;entryX=0.5;entryY=0;entryDx=0;entryDy=0;fontFamily=Times New Roman;fontSize=14;" edge="1" parent="1" source="xuL1burCqr2xMdkOILew-23" target="xuL1burCqr2xMdkOILew-14">
          <mxGeometry relative="1" as="geometry" />
        </mxCell>
        <mxCell id="xuL1burCqr2xMdkOILew-23" value="Возвращает: tmp" style="shape=parallelogram;perimeter=parallelogramPerimeter;whiteSpace=wrap;html=1;fixedSize=1;fontFamily=Times New Roman;fontSize=14;" vertex="1" parent="1">
          <mxGeometry x="322" y="1080" width="236" height="60" as="geometry" />
        </mxCell>
        <mxCell id="vZTKx2LkaSeDYWvrjYth-3" style="edgeStyle=orthogonalEdgeStyle;rounded=0;orthogonalLoop=1;jettySize=auto;html=1;fontFamily=Times New Roman;fontSize=14;" edge="1" parent="1" source="vZTKx2LkaSeDYWvrjYth-1">
          <mxGeometry relative="1" as="geometry">
            <mxPoint x="440" y="400" as="targetPoint" />
          </mxGeometry>
        </mxCell>
        <mxCell id="vZTKx2LkaSeDYWvrjYth-1" value="&lt;font style=&quot;font-size: 14px;&quot; face=&quot;Times New Roman&quot;&gt;k = 0&lt;br&gt;&lt;/font&gt;" style="rounded=0;whiteSpace=wrap;html=1;" vertex="1" parent="1">
          <mxGeometry x="400" y="280" width="80" height="60" as="geometry" />
        </mxCell>
      </root>
    </mxGraphModel>
  </diagram>
</mxfile>
